<svg width="20" height="20" viewBox="0 0 20 20" fill="none" xmlns="http://www.w3.org/2000/svg">
<path fill-rule="evenodd" clip-rule="evenodd" d="M14.6551 15.8334C14.9805 16.1588 15.5082 16.1588 15.8336 15.8334C16.159 15.5079 16.159 14.9803 15.8336 14.6548L11.1788 10L15.8336 5.34522C16.159 5.01978 16.159 4.49215 15.8336 4.16671C15.5082 3.84127 14.9805 3.84127 14.6551 4.16671L10.0003 8.82152L5.34544 4.16669C5.02 3.84125 4.49237 3.84125 4.16693 4.16669C3.84149 4.49212 3.84149 5.01976 4.16693 5.3452L8.82176 10L4.16693 14.6549C3.84149 14.9803 3.84149 15.5079 4.16693 15.8334C4.49237 16.1588 5.02 16.1588 5.34544 15.8334L10.0003 11.1785L14.6551 15.8334Z" fill="#FD3F3F"/>
<path fill-rule="evenodd" clip-rule="evenodd" d="M14.6551 15.8334C14.9805 16.1588 15.5082 16.1588 15.8336 15.8334C16.159 15.5079 16.159 14.9803 15.8336 14.6548L11.1788 10L15.8336 5.34522C16.159 5.01978 16.159 4.49215 15.8336 4.16671C15.5082 3.84127 14.9805 3.84127 14.6551 4.16671L10.0003 8.82152L5.34544 4.16669C5.02 3.84125 4.49237 3.84125 4.16693 4.16669C3.84149 4.49212 3.84149 5.01976 4.16693 5.3452L8.82176 10L4.16693 14.6549C3.84149 14.9803 3.84149 15.5079 4.16693 15.8334C4.49237 16.1588 5.02 16.1588 5.34544 15.8334L10.0003 11.1785L14.6551 15.8334Z" fill="black" fill-opacity="0.6"/>
</svg>
