<svg id="Line_Color" height="512" viewBox="0 0 64 64" width="512" xmlns="http://www.w3.org/2000/svg"><g><path d="m15.03003 48.96997-2.82001 2.82001c-5.07001-5.04999-8.21002-12.06-8.21002-19.78998h4c0 6.62 2.69 12.62 7.03003 16.96997z" fill="#62dbfb"/><path d="m15.03003 15.02997c-4.34003 4.35003-7.03003 10.35003-7.03003 16.97003h-4c0-7.73004 3.14001-14.73004 8.20001-19.79999z" fill="#56d190"/><path d="m32 4v4c-6.62 0-12.62 2.69-16.96997 7.02997l-2.83002-2.82996c5.07001-5.06 12.07001-8.20001 19.79999-8.20001z" fill="#62dbfb"/><path d="m51.79999 12.20001-2.83002 2.82996c-4.34997-4.33997-10.34997-7.02997-16.96997-7.02997v-4c7.72998 0 14.72998 3.14001 19.79999 8.20001z" fill="#56d190"/><path d="m60 32h-4c0-6.62-2.69-12.62-7.03003-16.97003l2.83002-2.82996c5.06 5.06995 8.20001 12.06995 8.20001 19.79999z" fill="#62dbfb"/><path d="m60 32c0 7.72998-3.14001 14.73999-8.21002 19.78998l-2.82001-2.82001c4.34003-4.34997 7.03003-10.34997 7.03003-16.96997z" fill="#56d190"/><path d="m51.78998 51.78998c-3 3.01001-6.69 5.33002-10.78998 6.72003v-4.27002c3.01001-1.21002 5.71002-3.02002 7.96997-5.27002z" fill="#62dbfb"/><path d="m23 54.23999v4.27002c-4.09998-1.39001-7.78998-3.71002-10.78998-6.72003l2.82001-2.82001c2.25995 2.25 4.95996 4.06 7.96997 5.27002z" fill="#56d190"/><path d="m56 32c0 6.62-2.69 12.62-7.03003 16.96997-2.25995 2.25-4.95996 4.06-7.96997 5.27002v-15.23999c3.31 0 6-2.91003 6-6.5 0-3.23004-2.16998-5.90002-5.02002-6.41003-.19-3.39997-2.79999-6.08997-5.97998-6.08997-1.53998 0-2.94.63-4 1.65997-1.06-1.02997-2.46002-1.65997-4-1.65997-3.17999 0-5.78998 2.69-5.97998 6.08997-2.85004.51001-5.02002 3.17999-5.02002 6.41003 0 3.58997 2.69 6.5 6 6.5v15.23999c-3.01001-1.21002-5.71002-3.02002-7.96997-5.27002-4.34003-4.34997-7.03003-10.34997-7.03003-16.96997s2.69-12.62 7.03003-16.97003c4.34997-4.33997 10.34997-7.02997 16.96997-7.02997s12.62 2.69 16.96997 7.02997c4.34003 4.35003 7.03003 10.35003 7.03003 16.97003z" fill="#f9f7f8"/><g fill="#dbd9da"><path d="m17.65002 46.34998c-4.34002-4.34998-7.03002-10.34998-7.03002-16.96998 0-5.95392 2.18085-11.40198 5.776-15.60358-.46985.4021-.92841.81702-1.36597 1.25354-4.34003 4.35004-7.03003 10.35004-7.03003 16.97004s2.69 12.62 7.03003 16.96997c2.25995 2.25 4.95996 4.06 7.96997 5.27002v-3.88831c-1.96509-1.08807-3.77045-2.42913-5.34998-4.0017z"/><path d="m43.96997 52.78998c-.94995.54999-1.93994 1.03998-2.96997 1.45001v-15.23999c.94 0 1.83002-.23999 2.62-.66003z"/></g><path d="m47 32.5c0 3.58997-2.69 6.5-6 6.5v19.51001c-2.82001.96997-5.84998 1.48999-9 1.48999s-6.17999-.52002-9-1.48999v-19.51001c-3.31 0-6-2.91003-6-6.5 0-3.23004 2.16998-5.90002 5.02002-6.41003.19-3.39997 2.79999-6.08997 5.97998-6.08997 1.53998 0 2.94.63 4 1.65997 1.06-1.02997 2.46002-1.65997 4-1.65997 3.17999 0 5.78998 2.69 5.97998 6.08997 2.85004.51001 5.02002 3.17999 5.02002 6.41003z" fill="#fe9738"/><g><path d="m35 58c-3.15002 0-6.17999-.52002-9-1.48999v-19.51001c-3.31 0-6-2.91003-6-6.5 0-1.6311.55579-3.11682 1.47064-4.25629-2.57031.73743-4.47064 3.24079-4.47064 6.25629 0 3.58997 2.69 6.5 6 6.5v19.51001c2.82001.96997 5.84998 1.48999 9 1.48999s6.17999-.52002 9-1.48999v-1.18018c-1.93433.42621-3.9375.67017-6 .67017z" fill="#f4882f"/></g><g fill="#d77f4a"><ellipse cx="23" cy="32.5" rx="2" ry="2.5"/><ellipse cx="28" cy="26.5" rx="2" ry="2.5"/><path d="m36.76001 38.71997c-.54999 1.14001-1.89001 1.60999-3 1.03003-1.10999-.57001-2.41003-.57001-3.52002 0-1.10999.57996-2.45001.10999-3-1.03003-.51001-1.04999-.17999-2.32001.76001-2.96997.67999-.48004 1.25-1.06 1.52002-1.90002.35998-1.09998 1.35998-1.84998 2.47998-1.84998s2.12.75 2.47998 1.84998c.26001.83001.83002 1.41998 1.52002 1.90002.94.64996 1.27002 1.91998.76001 2.96997z"/><ellipse cx="36" cy="26.5" rx="2" ry="2.5"/><ellipse cx="41" cy="32.5" rx="2" ry="2.5"/></g><g><path d="m23 29c-1.6543 0-3 1.57031-3 3.5s1.3457 3.5 3 3.5 3-1.57031 3-3.5-1.3457-3.5-3-3.5zm0 5c-.53271 0-1-.70117-1-1.5s.46729-1.5 1-1.5 1 .70117 1 1.5-.46729 1.5-1 1.5z"/><path d="m28 30c1.6543 0 3-1.57031 3-3.5s-1.3457-3.5-3-3.5-3 1.57031-3 3.5 1.3457 3.5 3 3.5zm0-5c.53271 0 1 .70117 1 1.5s-.46729 1.5-1 1.5-1-.70117-1-1.5.46729-1.5 1-1.5z"/><path d="m36 30c1.6543 0 3-1.57031 3-3.5s-1.3457-3.5-3-3.5-3 1.57031-3 3.5 1.3457 3.5 3 3.5zm0-5c.53223 0 1 .70117 1 1.5s-.46777 1.5-1 1.5-1-.70117-1-1.5.46777-1.5 1-1.5z"/><path d="m41 29c-1.6543 0-3 1.57031-3 3.5s1.3457 3.5 3 3.5 3-1.57031 3-3.5-1.3457-3.5-3-3.5zm0 5c-.53223 0-1-.70117-1-1.5s.46777-1.5 1-1.5 1 .70117 1 1.5-.46777 1.5-1 1.5z"/><path d="m36.57422 34.92627c-.62402-.43213-.97754-.85693-1.14453-1.37842-.48926-1.52392-1.86817-2.54785-3.42969-2.54785s-2.93994 1.02393-3.4292 2.54785c-.16748.521-.52051.94629-1.14404 1.37842-1.33691.9248-1.80615 2.74115-1.09131 4.22406.7738 1.60529 2.7652 2.31964 4.35986 1.49176.81738-.42334 1.79297-.42334 2.6084 0 1.60333.83234 3.58704.11603 4.36133-1.4917.71387-1.4834.24512-3.29932-1.09082-4.22412zm-.71192 3.35693c-.29254.60706-1.02332.90179-1.63672.5835-1.36981-.71082-3.06464-.71875-4.4516-.00006-.61475.3186-1.3443.02344-1.63678-.58392-.2915-.60547-.10791-1.34131.42773-1.7124.98242-.68066 1.60742-1.46924 1.91016-2.41113.22266-.69337.83546-1.15919 1.52491-1.15919.68994 0 1.30273.46582 1.52539 1.15918.30273.94238.92773 1.73096 1.91016 2.41162.53515.37012.71875 1.10639.42675 1.7124z"/><path d="m32 3c-15.99072 0-29 13.00928-29 29s13.00928 29 29 29c15.99023 0 29-13.00928 29-29s-13.00977-29-29-29zm19.77307 10.64099c4.26782 4.59332 6.95636 10.66828 7.20154 17.35901h-2c-.24304-6.13965-2.70813-11.71594-6.61499-15.94556zm-18.77307-8.6156c6.69073.24518 12.76569 2.93372 17.35901 7.20154l-1.41345 1.41345c-4.22962-3.90686-9.80591-6.37195-15.94556-6.61499zm-2 0v2c-6.13965.24304-11.71594 2.70813-15.94556 6.61499l-1.41345-1.41345c4.59332-4.26782 10.66828-6.95636 17.35901-7.20154zm-18.77307 8.6156 1.41345 1.41345c-3.90686 4.22962-6.37195 9.80591-6.61499 15.94556h-2c.24518-6.69073 2.93372-12.76569 7.20154-17.35901zm0 36.71802c-4.26782-4.59332-6.95636-10.66828-7.20154-17.35901h2.01196c.23865 6.07166 2.62146 11.68616 6.58368 15.9649zm9.77307 6.71313c-3.11285-1.24609-5.94135-3.05273-8.35901-5.29907l1.40009-1.40009c2.01263 1.84962 4.35382 3.37946 6.95892 4.51423zm0-4.37494c-7.94275-3.81878-13-11.78247-13-20.6972 0-12.68213 10.31787-23 23-23 12.68262 0 23 10.31787 23 23 0 8.91492-5.0578 16.8786-13 20.69733v-12.77735c3.39001-.52002 6-3.65002 6-7.41998 0-3.40002-2.09998-6.32001-5.09998-7.22003-.54003-3.57996-3.44-6.27997-6.90002-6.27997-1.44 0-2.83002.46997-4 1.34998-1.16998-.88001-2.56-1.34998-4-1.34998-3.46002 0-6.35999 2.70001-6.90002 6.27997-3 .90002-5.09998 3.82001-5.09998 7.22003 0 3.76996 2.60999 6.89996 6 7.41998zm18-13.6972v18.78979c-2.52893.78614-5.21588 1.21021-8 1.21021s-5.47107-.42407-8-1.21021v-18.78979c0-.54999-.45001-1-1-1-2.76001 0-5-2.47003-5-5.5 0-2.71002 1.76001-4.98999 4.20001-5.42999.45001-.08002.78998-.46002.82001-.92004.15997-2.88996 2.34998-5.14997 4.97998-5.14997 1.21997 0 2.39001.48999 3.29999 1.38.39001.37 1.01001.37 1.40002 0 .90998-.89001 2.08002-1.38 3.29999-1.38 2.63 0 4.82001 2.26001 4.97998 5.14996.03003.46002.37.84003.82001.92004 2.44.44001 4.20001 2.71998 4.20001 5.43 0 3.02997-2.23999 5.5-5 5.5-.54999 0-1 .45001-1 1zm2 18.07214v-2.18512c2.6051-1.13477 4.94617-2.66467 6.95874-4.51422l1.40027 1.40027c-2.41766 2.24634-5.24616 4.05298-8.35901 5.29907zm9.77307-6.71313-1.39429-1.39429c3.96228-4.27881 6.34522-9.89313 6.58387-15.96472h2.01196c-.24518 6.69073-2.93372 12.76569-7.20154 17.35901z"/></g></g></svg>