<!-- icon666.com - MILLIONS vector ICONS FREE --><svg viewBox="0 0 25 25" xmlns="http://www.w3.org/2000/svg"><g id="Layer_14" data-name="Layer 14"><path d="m17.5 7a5 5 0 0 1 -3.65 4.81 4.64 4.64 0 0 1 -1.35.19 5 5 0 0 1 -2-9.59 4.87 4.87 0 0 1 2-.41 5 5 0 0 1 5 5z" fill="#1e88e5"></path><path d="m23 22.44a.55.55 0 0 1 -.5.56h-20a.5.5 0 0 1 -.5-.5 9.47 9.47 0 0 1 9.44-9.5h2.34a9.46 9.46 0 0 1 9.22 9.44z" fill="#1e88e5"></path><path d="m13.85 11.81a5 5 0 0 0 -1.35-9.81 4.87 4.87 0 0 0 -2 .41 13.89 13.89 0 0 1 3.34 9.07c.02.11.02.22.01.33z" fill="#1976d2"></path><path d="m13.78 13a14 14 0 0 1 -6 10h14.72a.55.55 0 0 0 .5-.56 9.46 9.46 0 0 0 -9.22-9.44z" fill="#1976d2"></path><g fill="#0d47a1"><path d="m12.5 12a5 5 0 1 1 5-5 5 5 0 0 1 -5 5zm0-9a4 4 0 1 0 4 4 4 4 0 0 0 -4-4z"></path><path d="m22.5 23h-20a.5.5 0 0 1 -.5-.5 9.47 9.47 0 0 1 9.44-9.5h2.12a9.46 9.46 0 0 1 9.44 9.44.55.55 0 0 1 -.5.56zm-19.5-1h19a8.46 8.46 0 0 0 -8.43-8h-2.13a8.46 8.46 0 0 0 -8.44 8z"></path></g></g></svg>